<?xml version="1.0" encoding="utf-8"?><svg viewBox="0 0 30 18" xmlns="http://www.w3.org/2000/svg" xmlns:xlink="http://www.w3.org/1999/xlink"><style>:root>svg{display:none}:root>svg:target{display:block}</style><svg viewBox="0 0 26 18" id="YT" xmlns="http://www.w3.org/2000/svg"><path d="M17.42 9.503l-6.543 3.2c-.255.138-1.127-.045-1.127-.334V5.797c0-.292.879-.475 1.135-.33l6.263 3.37c.262.148.537.523.272.666zM26 5.643C26 2.526 23.445 0 20.294 0H5.705C2.555 0 0 2.527 0 5.642v6.714C0 15.473 2.554 18 5.705 18h14.59C23.444 18 26 15.473 26 12.356V5.642z"/></svg><svg viewBox="0 0 18 18" id="insta" xmlns="http://www.w3.org/2000/svg"><path d="M9.074 11.84A2.844 2.844 0 016.234 9a2.843 2.843 0 012.84-2.839 2.842 2.842 0 012.84 2.84 2.843 2.843 0 01-2.84 2.84zm0-7.273A4.438 4.438 0 004.64 9a4.438 4.438 0 004.433 4.433A4.438 4.438 0 0013.507 9a4.438 4.438 0 00-4.433-4.433z"/><path d="M5.407 1.694a3.717 3.717 0 00-3.714 3.713v7.186a3.717 3.717 0 003.714 3.713h7.186a3.717 3.717 0 003.714-3.713V5.407a3.717 3.717 0 00-3.714-3.713H5.407zM12.593 18H5.407A5.413 5.413 0 010 12.593V5.407A5.413 5.413 0 015.407 0h7.186A5.413 5.413 0 0118 5.407v7.186A5.413 5.413 0 0112.593 18z"/><path clip-rule="evenodd" d="M5.407 1.694a3.717 3.717 0 00-3.714 3.713v7.186a3.717 3.717 0 003.714 3.713h7.186a3.717 3.717 0 003.714-3.713V5.407a3.717 3.717 0 00-3.714-3.713H5.407zm7.303 2.575a1.055 1.055 0 112.11 0 1.055 1.055 0 01-2.11 0zM4.64 9a4.438 4.438 0 014.434-4.433A4.438 4.438 0 0113.507 9a4.438 4.438 0 01-4.433 4.433A4.438 4.438 0 014.64 9z"/></svg><svg viewBox="0 0 30 18" id="vk" xmlns="http://www.w3.org/2000/svg"><path clip-rule="evenodd" d="M29.31 1.208c.21-.71 0-1.208-.985-1.208h-3.283c-.844 0-1.22.45-1.43.947 0 0-1.665 4.121-4.033 6.774-.774.782-1.102 1.018-1.524 1.018-.212 0-.516-.236-.516-.947V1.208C17.539.355 17.304 0 16.6 0h-5.159c-.515 0-.844.403-.844.758 0 .805 1.173.995 1.313 3.221v4.879c0 1.066-.187 1.255-.61 1.255-1.101 0-3.821-4.12-5.416-8.858C5.557.38 5.252 0 4.408 0H1.125C.188 0 0 .45 0 .947c0 .877 1.102 5.235 5.182 10.99C7.902 15.868 11.724 18 15.194 18c2.087 0 2.345-.474 2.345-1.279v-2.984c0-.947.187-1.137.867-1.137.493 0 1.313.237 3.26 2.132C23.892 16.982 24.267 18 25.51 18h3.282c.938 0 1.407-.474 1.126-1.397-.305-.924-1.36-2.274-2.767-3.885-.774-.923-1.923-1.894-2.25-2.392-.493-.64-.353-.923 0-1.468 0-.024 4.009-5.708 4.407-7.65z"/></svg></svg>